<?xml version="1.0" encoding="UTF-8"?>
<!DOCTYPE score-partwise PUBLIC "-//Recordare//DTD MusicXML 2.0 Partwise//EN"
  "http://www.musicxml.org/dtds/partwise.dtd">
<score-partwise version="2.0"><work><work-title>12 Bar Blues</work-title></work><identification><creator type="composer"/><creator type="lyricist"/><rights/><encoding><software>Noteflight version 0.4</software><encoding-date>2021-09-27</encoding-date><supports attribute="new-system" element="print" type="no" value="no"/><supports attribute="new-page" element="print" type="no" value="no"/></encoding></identification><defaults><scaling><millimeters>2.1166666679999997</millimeters><tenths>10</tenths></scaling><page-layout><page-height>1320</page-height><page-width>1020</page-width><page-margins type="both"><left-margin>59.583333333333336</left-margin><right-margin>56.66666666666667</right-margin><top-margin>96.66666666666667</top-margin><bottom-margin>80</bottom-margin></page-margins></page-layout><system-layout><system-margins><left-margin>59.583333333333336</left-margin><right-margin>26.666666666666668</right-margin></system-margins><system-distance>92.5</system-distance><top-system-distance>145.83333333333334</top-system-distance></system-layout><staff-layout><staff-distance>55</staff-distance></staff-layout></defaults><credit page="1"><credit-type>title</credit-type><credit-words font-size="24" default-x="510" default-y="1210" justify="right" valign="top">12 Bar Blues</credit-words></credit><part-list><score-part id="P1"><part-name>Gtr.</part-name><part-abbreviation>Gtr.</part-abbreviation><score-instrument id="P1I1"><instrument-name>Gtr.</instrument-name><instrument-sound>pluck.guitar.acoustic</instrument-sound></score-instrument><midi-instrument id="P1I1"><midi-channel>1</midi-channel><midi-program>25</midi-program></midi-instrument></score-part><score-part id="P2"><part-name>Guitar</part-name><part-abbreviation>Gtr.</part-abbreviation><score-instrument id="P2I1"><instrument-name>Guitar</instrument-name><instrument-sound>pluck.guitar.acoustic</instrument-sound></score-instrument><midi-instrument id="P2I1"><midi-channel>2</midi-channel><midi-program>25</midi-program></midi-instrument></score-part></part-list><part id="P1"><measure number="1"><attributes><divisions>64</divisions><key><fifths>3</fifths><mode>major</mode></key><time print-object="yes"><beats>4</beats><beat-type>4</beat-type></time><clef number="1"><sign>G</sign><line>2</line></clef><transpose><diatonic>0</diatonic><chromatic>0</chromatic><octave-change>-1</octave-change></transpose></attributes><direction placement="above"><direction-type><metronome><beat-unit>quarter</beat-unit><per-minute>120</per-minute></metronome></direction-type><sound tempo="120"/></direction><direction placement="above"><direction-type><metronome><beat-unit>quarter</beat-unit><per-minute>120</per-minute></metronome></direction-type><sound tempo="120"/></direction><note color="#FF0000"><pitch><step>A</step><octave>3</octave></pitch><duration>32</duration><voice>1</voice><type>eighth</type><beam number="1">begin</beam></note><note><chord/><pitch><step>E</step><octave>4</octave></pitch><duration>32</duration><voice>1</voice><type>eighth</type><beam number="1">begin</beam></note><note><pitch><step>A</step><octave>3</octave></pitch><duration>32</duration><voice>1</voice><type>eighth</type><beam number="1">end</beam></note><note><chord/><pitch><step>E</step><octave>4</octave></pitch><duration>32</duration><voice>1</voice><type>eighth</type><beam number="1">end</beam></note><note><pitch><step>A</step><octave>3</octave></pitch><duration>32</duration><voice>1</voice><type>eighth</type><beam number="1">begin</beam></note><note><chord/><pitch><step>F</step><alter>1</alter><octave>4</octave></pitch><duration>32</duration><voice>1</voice><type>eighth</type><beam number="1">begin</beam></note><note><pitch><step>A</step><octave>3</octave></pitch><duration>32</duration><voice>1</voice><type>eighth</type><beam number="1">end</beam></note><note><chord/><pitch><step>F</step><alter>1</alter><octave>4</octave></pitch><duration>32</duration><voice>1</voice><type>eighth</type><beam number="1">end</beam></note><note><pitch><step>A</step><octave>3</octave></pitch><duration>32</duration><voice>1</voice><type>eighth</type><beam number="1">begin</beam></note><note><chord/><pitch><step>E</step><octave>4</octave></pitch><duration>32</duration><voice>1</voice><type>eighth</type><beam number="1">begin</beam></note><note><pitch><step>A</step><octave>3</octave></pitch><duration>32</duration><voice>1</voice><type>eighth</type><beam number="1">end</beam></note><note><chord/><pitch><step>E</step><octave>4</octave></pitch><duration>32</duration><voice>1</voice><type>eighth</type><beam number="1">end</beam></note><note><pitch><step>A</step><octave>3</octave></pitch><duration>64</duration><voice>1</voice><type>quarter</type></note><note><chord/><pitch><step>F</step><alter>1</alter><octave>4</octave></pitch><duration>64</duration><voice>1</voice><type>quarter</type></note></measure><measure number="2"><attributes/><note><pitch><step>A</step><octave>4</octave></pitch><duration>64</duration><voice>1</voice><type>quarter</type></note><note><pitch><step>G</step><octave>4</octave></pitch><duration>64</duration><voice>1</voice><type>quarter</type><accidental>natural</accidental></note><note><pitch><step>D</step><octave>4</octave></pitch><duration>32</duration><voice>1</voice><type>eighth</type><beam number="1">begin</beam></note><note><pitch><step>C</step><octave>4</octave></pitch><duration>32</duration><voice>1</voice><type>eighth</type><accidental>natural</accidental><beam number="1">end</beam></note><note><pitch><step>A</step><octave>3</octave></pitch><duration>64</duration><voice>1</voice><type>quarter</type></note></measure><measure number="3"><attributes/><note><pitch><step>A</step><octave>3</octave></pitch><duration>32</duration><voice>1</voice><type>eighth</type><beam number="1">begin</beam></note><note><chord/><pitch><step>E</step><octave>4</octave></pitch><duration>32</duration><voice>1</voice><type>eighth</type><beam number="1">begin</beam></note><note><pitch><step>A</step><octave>3</octave></pitch><duration>32</duration><voice>1</voice><type>eighth</type><beam number="1">end</beam></note><note><chord/><pitch><step>E</step><octave>4</octave></pitch><duration>32</duration><voice>1</voice><type>eighth</type><beam number="1">end</beam></note><note><pitch><step>A</step><octave>3</octave></pitch><duration>32</duration><voice>1</voice><type>eighth</type><beam number="1">begin</beam></note><note><chord/><pitch><step>F</step><alter>1</alter><octave>4</octave></pitch><duration>32</duration><voice>1</voice><type>eighth</type><beam number="1">begin</beam></note><note><pitch><step>A</step><octave>3</octave></pitch><duration>32</duration><voice>1</voice><type>eighth</type><beam number="1">end</beam></note><note><chord/><pitch><step>F</step><alter>1</alter><octave>4</octave></pitch><duration>32</duration><voice>1</voice><type>eighth</type><beam number="1">end</beam></note><note><pitch><step>A</step><octave>3</octave></pitch><duration>32</duration><voice>1</voice><type>eighth</type><beam number="1">begin</beam></note><note><chord/><pitch><step>E</step><octave>4</octave></pitch><duration>32</duration><voice>1</voice><type>eighth</type><beam number="1">begin</beam></note><note><pitch><step>A</step><octave>3</octave></pitch><duration>32</duration><voice>1</voice><type>eighth</type><beam number="1">end</beam></note><note><chord/><pitch><step>E</step><octave>4</octave></pitch><duration>32</duration><voice>1</voice><type>eighth</type><beam number="1">end</beam></note><note><pitch><step>A</step><octave>3</octave></pitch><duration>32</duration><voice>1</voice><type>eighth</type><beam number="1">begin</beam></note><note><chord/><pitch><step>F</step><alter>1</alter><octave>4</octave></pitch><duration>32</duration><voice>1</voice><type>eighth</type><beam number="1">begin</beam></note><note><pitch><step>A</step><octave>3</octave></pitch><duration>32</duration><voice>1</voice><type>eighth</type><beam number="1">end</beam></note><note><chord/><pitch><step>F</step><alter>1</alter><octave>4</octave></pitch><duration>32</duration><voice>1</voice><type>eighth</type><beam number="1">end</beam></note></measure><measure number="4"><attributes/><note><rest/><duration>64</duration><voice>1</voice><type>quarter</type></note><note><pitch><step>G</step><octave>4</octave></pitch><duration>32</duration><voice>1</voice><type>eighth</type><accidental>natural</accidental><beam number="1">begin</beam></note><note><pitch><step>A</step><octave>4</octave></pitch><duration>32</duration><voice>1</voice><type>eighth</type><beam number="1">end</beam></note><note><pitch><step>C</step><octave>5</octave></pitch><duration>32</duration><voice>1</voice><type>eighth</type><accidental>natural</accidental></note><note><chord/><pitch><step>E</step><octave>5</octave></pitch><duration>32</duration><voice>1</voice><type>eighth</type></note><note><rest/><duration>32</duration><voice>1</voice><type>eighth</type></note><note><pitch><step>C</step><octave>5</octave></pitch><duration>64</duration><voice>1</voice><type>quarter</type></note><note><chord/><pitch><step>E</step><octave>5</octave></pitch><duration>64</duration><voice>1</voice><type>quarter</type></note></measure><measure number="5"><attributes/><note><pitch><step>D</step><octave>4</octave></pitch><duration>32</duration><voice>1</voice><type>eighth</type><beam number="1">begin</beam></note><note><chord/><pitch><step>A</step><octave>4</octave></pitch><duration>32</duration><voice>1</voice><type>eighth</type><beam number="1">begin</beam></note><note><pitch><step>D</step><octave>4</octave></pitch><duration>32</duration><voice>1</voice><type>eighth</type><beam number="1">end</beam></note><note><chord/><pitch><step>A</step><octave>4</octave></pitch><duration>32</duration><voice>1</voice><type>eighth</type><beam number="1">end</beam></note><note><pitch><step>D</step><octave>4</octave></pitch><duration>32</duration><voice>1</voice><type>eighth</type><beam number="1">begin</beam></note><note><chord/><pitch><step>B</step><octave>4</octave></pitch><duration>32</duration><voice>1</voice><type>eighth</type><beam number="1">begin</beam></note><note><pitch><step>D</step><octave>4</octave></pitch><duration>32</duration><voice>1</voice><type>eighth</type><beam number="1">end</beam></note><note><chord/><pitch><step>B</step><octave>4</octave></pitch><duration>32</duration><voice>1</voice><type>eighth</type><beam number="1">end</beam></note><note><pitch><step>D</step><octave>4</octave></pitch><duration>32</duration><voice>1</voice><type>eighth</type><beam number="1">begin</beam></note><note><chord/><pitch><step>A</step><octave>4</octave></pitch><duration>32</duration><voice>1</voice><type>eighth</type><beam number="1">begin</beam></note><note><pitch><step>D</step><octave>4</octave></pitch><duration>32</duration><voice>1</voice><type>eighth</type><beam number="1">end</beam></note><note><chord/><pitch><step>A</step><octave>4</octave></pitch><duration>32</duration><voice>1</voice><type>eighth</type><beam number="1">end</beam></note><note><pitch><step>D</step><octave>4</octave></pitch><duration>64</duration><voice>1</voice><type>quarter</type></note><note><chord/><pitch><step>B</step><octave>4</octave></pitch><duration>64</duration><voice>1</voice><type>quarter</type></note></measure><measure number="6"><attributes/><note><pitch><step>C</step><octave>6</octave></pitch><duration>64</duration><voice>1</voice><type>quarter</type><accidental>natural</accidental></note><note><pitch><step>C</step><octave>6</octave></pitch><duration>64</duration><voice>1</voice><type>quarter</type></note><note><pitch><step>A</step><octave>5</octave></pitch><duration>32</duration><voice>1</voice><type>eighth</type><beam number="1">begin</beam></note><note><pitch><step>G</step><octave>5</octave></pitch><duration>32</duration><voice>1</voice><type>eighth</type><accidental>natural</accidental><beam number="1">end</beam></note><note><pitch><step>A</step><octave>5</octave></pitch><duration>64</duration><voice>1</voice><type>quarter</type></note></measure><measure number="7"><attributes/><note><pitch><step>A</step><octave>3</octave></pitch><duration>32</duration><voice>1</voice><type>eighth</type><beam number="1">begin</beam></note><note><chord/><pitch><step>E</step><octave>4</octave></pitch><duration>32</duration><voice>1</voice><type>eighth</type><beam number="1">begin</beam></note><note><pitch><step>A</step><octave>3</octave></pitch><duration>32</duration><voice>1</voice><type>eighth</type><beam number="1">end</beam></note><note><chord/><pitch><step>E</step><octave>4</octave></pitch><duration>32</duration><voice>1</voice><type>eighth</type><beam number="1">end</beam></note><note><pitch><step>A</step><octave>3</octave></pitch><duration>32</duration><voice>1</voice><type>eighth</type><beam number="1">begin</beam></note><note><chord/><pitch><step>F</step><alter>1</alter><octave>4</octave></pitch><duration>32</duration><voice>1</voice><type>eighth</type><beam number="1">begin</beam></note><note><pitch><step>A</step><octave>3</octave></pitch><duration>32</duration><voice>1</voice><type>eighth</type><beam number="1">end</beam></note><note><chord/><pitch><step>F</step><alter>1</alter><octave>4</octave></pitch><duration>32</duration><voice>1</voice><type>eighth</type><beam number="1">end</beam></note><note><pitch><step>A</step><octave>3</octave></pitch><duration>32</duration><voice>1</voice><type>eighth</type><beam number="1">begin</beam></note><note><chord/><pitch><step>E</step><octave>4</octave></pitch><duration>32</duration><voice>1</voice><type>eighth</type><beam number="1">begin</beam></note><note><pitch><step>A</step><octave>3</octave></pitch><duration>32</duration><voice>1</voice><type>eighth</type><beam number="1">end</beam></note><note><chord/><pitch><step>E</step><octave>4</octave></pitch><duration>32</duration><voice>1</voice><type>eighth</type><beam number="1">end</beam></note><note><pitch><step>A</step><octave>3</octave></pitch><duration>64</duration><voice>1</voice><type>quarter</type></note><note><chord/><pitch><step>F</step><alter>1</alter><octave>4</octave></pitch><duration>64</duration><voice>1</voice><type>quarter</type></note></measure><measure number="8"><attributes/><note><pitch><step>G</step><octave>5</octave></pitch><duration>64</duration><voice>1</voice><type>quarter</type><accidental>natural</accidental></note><note><pitch><step>G</step><octave>5</octave></pitch><duration>64</duration><voice>1</voice><type>quarter</type></note><note><pitch><step>E</step><octave>5</octave></pitch><duration>32</duration><voice>1</voice><type>eighth</type><beam number="1">begin</beam></note><note><pitch><step>D</step><octave>5</octave></pitch><duration>32</duration><voice>1</voice><type>eighth</type><beam number="1">end</beam></note><note><pitch><step>D</step><octave>5</octave></pitch><duration>32</duration><voice>1</voice><type>eighth</type><beam number="1">begin</beam></note><note><pitch><step>E</step><octave>5</octave></pitch><duration>32</duration><voice>1</voice><type>eighth</type><beam number="1">end</beam></note></measure><measure number="9"><attributes/><note><pitch><step>E</step><octave>3</octave></pitch><duration>32</duration><voice>1</voice><type>eighth</type><beam number="1">begin</beam></note><note><chord/><pitch><step>B</step><octave>3</octave></pitch><duration>32</duration><voice>1</voice><type>eighth</type><beam number="1">begin</beam></note><note><pitch><step>E</step><octave>3</octave></pitch><duration>32</duration><voice>1</voice><type>eighth</type><beam number="1">end</beam></note><note><chord/><pitch><step>B</step><octave>3</octave></pitch><duration>32</duration><voice>1</voice><type>eighth</type><beam number="1">end</beam></note><note><pitch><step>E</step><octave>3</octave></pitch><duration>32</duration><voice>1</voice><type>eighth</type><beam number="1">begin</beam></note><note><chord/><pitch><step>C</step><alter>1</alter><octave>4</octave></pitch><duration>32</duration><voice>1</voice><type>eighth</type><beam number="1">begin</beam></note><note><pitch><step>E</step><octave>3</octave></pitch><duration>32</duration><voice>1</voice><type>eighth</type><beam number="1">end</beam></note><note><chord/><pitch><step>C</step><alter>1</alter><octave>4</octave></pitch><duration>32</duration><voice>1</voice><type>eighth</type><beam number="1">end</beam></note><note><pitch><step>E</step><octave>3</octave></pitch><duration>32</duration><voice>1</voice><type>eighth</type><beam number="1">begin</beam></note><note><chord/><pitch><step>B</step><octave>3</octave></pitch><duration>32</duration><voice>1</voice><type>eighth</type><beam number="1">begin</beam></note><note><pitch><step>E</step><octave>3</octave></pitch><duration>32</duration><voice>1</voice><type>eighth</type><beam number="1">end</beam></note><note><chord/><pitch><step>B</step><octave>3</octave></pitch><duration>32</duration><voice>1</voice><type>eighth</type><beam number="1">end</beam></note><note><pitch><step>E</step><octave>3</octave></pitch><duration>64</duration><voice>1</voice><type>quarter</type></note><note><chord/><pitch><step>C</step><alter>1</alter><octave>4</octave></pitch><duration>64</duration><voice>1</voice><type>quarter</type></note></measure><measure number="10"><attributes/><note><pitch><step>E</step><octave>5</octave></pitch><duration>32</duration><voice>1</voice><type>eighth</type><beam number="1">begin</beam></note><note><pitch><step>D</step><octave>5</octave></pitch><duration>32</duration><voice>1</voice><type>eighth</type><beam number="1">end</beam></note><note><pitch><step>B</step><octave>4</octave></pitch><duration>32</duration><voice>1</voice><type>eighth</type><beam number="1">begin</beam></note><note><pitch><step>A</step><alter>1</alter><octave>4</octave></pitch><duration>32</duration><voice>1</voice><type>eighth</type><accidental>sharp</accidental><beam number="1">end</beam></note><note><pitch><step>A</step><octave>4</octave></pitch><duration>32</duration><voice>1</voice><type>eighth</type><accidental>natural</accidental><beam number="1">begin</beam></note><note><pitch><step>G</step><octave>4</octave></pitch><duration>32</duration><voice>1</voice><type>eighth</type><accidental>natural</accidental><beam number="1">end</beam></note><note><pitch><step>E</step><octave>4</octave></pitch><duration>64</duration><voice>1</voice><type>quarter</type></note></measure><measure number="11"><attributes/><note><pitch><step>D</step><octave>4</octave></pitch><duration>32</duration><voice>1</voice><type>eighth</type><beam number="1">begin</beam></note><note><chord/><pitch><step>A</step><octave>4</octave></pitch><duration>32</duration><voice>1</voice><type>eighth</type><beam number="1">begin</beam></note><note><pitch><step>D</step><octave>4</octave></pitch><duration>32</duration><voice>1</voice><type>eighth</type><beam number="1">end</beam></note><note><chord/><pitch><step>A</step><octave>4</octave></pitch><duration>32</duration><voice>1</voice><type>eighth</type><beam number="1">end</beam></note><note><pitch><step>D</step><octave>4</octave></pitch><duration>32</duration><voice>1</voice><type>eighth</type><beam number="1">begin</beam></note><note><chord/><pitch><step>B</step><octave>4</octave></pitch><duration>32</duration><voice>1</voice><type>eighth</type><beam number="1">begin</beam></note><note><pitch><step>D</step><octave>4</octave></pitch><duration>32</duration><voice>1</voice><type>eighth</type><beam number="1">end</beam></note><note><chord/><pitch><step>B</step><octave>4</octave></pitch><duration>32</duration><voice>1</voice><type>eighth</type><beam number="1">end</beam></note><note><pitch><step>D</step><octave>4</octave></pitch><duration>32</duration><voice>1</voice><type>eighth</type><beam number="1">begin</beam></note><note><chord/><pitch><step>A</step><octave>4</octave></pitch><duration>32</duration><voice>1</voice><type>eighth</type><beam number="1">begin</beam></note><note><pitch><step>D</step><octave>4</octave></pitch><duration>32</duration><voice>1</voice><type>eighth</type><beam number="1">end</beam></note><note><chord/><pitch><step>A</step><octave>4</octave></pitch><duration>32</duration><voice>1</voice><type>eighth</type><beam number="1">end</beam></note><note><pitch><step>D</step><octave>4</octave></pitch><duration>64</duration><voice>1</voice><type>quarter</type></note><note><chord/><pitch><step>B</step><octave>4</octave></pitch><duration>64</duration><voice>1</voice><type>quarter</type></note></measure><measure number="12"><attributes/><note><pitch><step>G</step><octave>5</octave></pitch><duration>32</duration><voice>1</voice><type>eighth</type><accidental>natural</accidental><beam number="1">begin</beam></note><note><pitch><step>A</step><octave>5</octave></pitch><duration>32</duration><voice>1</voice><type>eighth</type><beam number="1">end</beam></note><note><chord/><pitch><step>D</step><octave>6</octave></pitch><duration>32</duration><voice>1</voice><type>eighth</type><beam number="1">end</beam></note><note><pitch><step>A</step><octave>5</octave></pitch><duration>32</duration><voice>1</voice><type>eighth</type><beam number="1">begin</beam></note><note><chord/><pitch><step>D</step><octave>6</octave></pitch><duration>32</duration><voice>1</voice><type>eighth</type><beam number="1">begin</beam></note><note><pitch><step>A</step><octave>5</octave></pitch><duration>32</duration><voice>1</voice><type>eighth</type><beam number="1">end</beam></note><note><chord/><pitch><step>D</step><octave>6</octave></pitch><duration>32</duration><voice>1</voice><type>eighth</type><beam number="1">end</beam></note><note><pitch><step>A</step><octave>5</octave></pitch><duration>128</duration><voice>1</voice><type>half</type></note><note><chord/><pitch><step>D</step><octave>6</octave></pitch><duration>128</duration><voice>1</voice><type>half</type></note></measure><measure number="13"><attributes/><note><pitch><step>A</step><octave>3</octave></pitch><duration>64</duration><voice>1</voice><type>quarter</type></note><note><pitch><step>G</step><octave>3</octave></pitch><duration>64</duration><voice>1</voice><type>quarter</type><accidental>natural</accidental></note><note><pitch><step>F</step><alter>1</alter><octave>3</octave></pitch><duration>64</duration><voice>1</voice><type>quarter</type></note><note><pitch><step>F</step><octave>3</octave></pitch><duration>64</duration><voice>1</voice><type>quarter</type><accidental>natural</accidental></note></measure><measure number="14"><attributes/><note><pitch><step>E</step><octave>3</octave></pitch><duration>96</duration><voice>1</voice><type>quarter</type><dot/></note><note><pitch><step>E</step><octave>3</octave></pitch><duration>32</duration><tie type="start"/><voice>1</voice><type>eighth</type><notations><tied type="start"/></notations></note><note><chord/><pitch><step>B</step><octave>3</octave></pitch><duration>32</duration><tie type="start"/><voice>1</voice><type>eighth</type><notations><tied type="start"/></notations></note><note><chord/><pitch><step>D</step><octave>4</octave></pitch><duration>32</duration><tie type="start"/><voice>1</voice><type>eighth</type><notations><tied type="start"/></notations></note><note><chord/><pitch><step>G</step><alter>1</alter><octave>4</octave></pitch><duration>32</duration><tie type="start"/><voice>1</voice><type>eighth</type><notations><tied type="start"/></notations></note><note><chord/><pitch><step>B</step><octave>4</octave></pitch><duration>32</duration><tie type="start"/><voice>1</voice><type>eighth</type><notations><tied type="start"/></notations></note><note><chord/><pitch><step>E</step><octave>5</octave></pitch><duration>32</duration><tie type="start"/><voice>1</voice><type>eighth</type><notations><tied type="start"/></notations></note><note><pitch><step>E</step><octave>3</octave></pitch><duration>128</duration><tie type="stop"/><voice>1</voice><type>half</type><notations><tied type="stop"/></notations></note><note><chord/><pitch><step>B</step><octave>3</octave></pitch><duration>128</duration><tie type="stop"/><voice>1</voice><type>half</type><notations><tied type="stop"/></notations></note><note><chord/><pitch><step>D</step><octave>4</octave></pitch><duration>128</duration><tie type="stop"/><voice>1</voice><type>half</type><notations><tied type="stop"/></notations></note><note><chord/><pitch><step>G</step><alter>1</alter><octave>4</octave></pitch><duration>128</duration><tie type="stop"/><voice>1</voice><type>half</type><notations><tied type="stop"/></notations></note><note><chord/><pitch><step>B</step><octave>4</octave></pitch><duration>128</duration><tie type="stop"/><voice>1</voice><type>half</type><notations><tied type="stop"/></notations></note><note><chord/><pitch><step>E</step><octave>5</octave></pitch><duration>128</duration><tie type="stop"/><voice>1</voice><type>half</type><notations><tied type="stop"/></notations></note><barline location="right"><bar-style>light-heavy</bar-style></barline></measure></part><part id="P2"><measure number="1"><attributes><divisions>64</divisions><key><fifths>3</fifths><mode>major</mode></key><time print-object="yes"><beats>4</beats><beat-type>4</beat-type></time><clef number="1"><sign>TAB</sign><line>7</line></clef><staff-details><staff-lines>6</staff-lines><staff-tuning line="1"><tuning-step>E</tuning-step><tuning-octave>2</tuning-octave></staff-tuning><staff-tuning line="2"><tuning-step>A</tuning-step><tuning-octave>2</tuning-octave></staff-tuning><staff-tuning line="3"><tuning-step>D</tuning-step><tuning-octave>3</tuning-octave></staff-tuning><staff-tuning line="4"><tuning-step>G</tuning-step><tuning-octave>3</tuning-octave></staff-tuning><staff-tuning line="5"><tuning-step>B</tuning-step><tuning-octave>3</tuning-octave></staff-tuning><staff-tuning line="6"><tuning-step>E</tuning-step><tuning-octave>4</tuning-octave></staff-tuning><capo>0</capo></staff-details></attributes><direction placement="above"><direction-type><metronome><beat-unit>quarter</beat-unit><per-minute>120</per-minute></metronome></direction-type><sound tempo="120"/></direction><note><pitch><step>A</step><octave>2</octave></pitch><duration>32</duration><voice>1</voice><type>eighth</type><beam number="1">begin</beam><notations><technical><string>5</string><fret>0</fret></technical></notations></note><note><chord/><pitch><step>E</step><octave>3</octave></pitch><duration>32</duration><voice>1</voice><type>eighth</type><beam number="1">begin</beam><notations><technical><string>4</string><fret>2</fret></technical></notations></note><note><pitch><step>A</step><octave>2</octave></pitch><duration>32</duration><voice>1</voice><type>eighth</type><beam number="1">end</beam><notations><technical><string>5</string><fret>0</fret></technical></notations></note><note><chord/><pitch><step>E</step><octave>3</octave></pitch><duration>32</duration><voice>1</voice><type>eighth</type><beam number="1">end</beam><notations><technical><string>4</string><fret>2</fret></technical></notations></note><note><pitch><step>A</step><octave>2</octave></pitch><duration>32</duration><voice>1</voice><type>eighth</type><beam number="1">begin</beam><notations><technical><string>5</string><fret>0</fret></technical></notations></note><note><chord/><pitch><step>G</step><alter>-1</alter><octave>3</octave></pitch><duration>32</duration><voice>1</voice><type>eighth</type><accidental>flat</accidental><beam number="1">begin</beam><notations><technical><string>4</string><fret>4</fret></technical></notations></note><note><pitch><step>A</step><octave>2</octave></pitch><duration>32</duration><voice>1</voice><type>eighth</type><beam number="1">end</beam><notations><technical><string>5</string><fret>0</fret></technical></notations></note><note><chord/><pitch><step>G</step><alter>-1</alter><octave>3</octave></pitch><duration>32</duration><voice>1</voice><type>eighth</type><beam number="1">end</beam><notations><technical><string>4</string><fret>4</fret></technical></notations></note><note><pitch><step>A</step><octave>2</octave></pitch><duration>32</duration><voice>1</voice><type>eighth</type><beam number="1">begin</beam><notations><technical><string>5</string><fret>0</fret></technical></notations></note><note><chord/><pitch><step>E</step><octave>3</octave></pitch><duration>32</duration><voice>1</voice><type>eighth</type><beam number="1">begin</beam><notations><technical><string>4</string><fret>2</fret></technical></notations></note><note><pitch><step>A</step><octave>2</octave></pitch><duration>32</duration><voice>1</voice><type>eighth</type><beam number="1">end</beam><notations><technical><string>5</string><fret>0</fret></technical></notations></note><note><chord/><pitch><step>E</step><octave>3</octave></pitch><duration>32</duration><voice>1</voice><type>eighth</type><beam number="1">end</beam><notations><technical><string>4</string><fret>2</fret></technical></notations></note><note><pitch><step>A</step><octave>2</octave></pitch><duration>64</duration><voice>1</voice><type>quarter</type><notations><technical><string>5</string><fret>0</fret></technical></notations></note><note><chord/><pitch><step>G</step><alter>-1</alter><octave>3</octave></pitch><duration>64</duration><voice>1</voice><type>quarter</type><notations><technical><string>4</string><fret>4</fret></technical></notations></note></measure><measure number="2"><attributes/><note><pitch><step>A</step><octave>3</octave></pitch><duration>64</duration><voice>1</voice><type>quarter</type><notations><technical><string>4</string><fret>7</fret></technical></notations></note><note><pitch><step>G</step><octave>3</octave></pitch><duration>64</duration><voice>1</voice><type>quarter</type><accidental>natural</accidental><notations><technical><string>4</string><fret>5</fret></technical></notations></note><note><pitch><step>D</step><octave>3</octave></pitch><duration>32</duration><voice>1</voice><type>eighth</type><beam number="1">begin</beam><notations><technical><string>5</string><fret>5</fret></technical></notations></note><note><pitch><step>C</step><octave>3</octave></pitch><duration>32</duration><voice>1</voice><type>eighth</type><accidental>natural</accidental><beam number="1">end</beam><notations><technical><string>6</string><fret>8</fret></technical></notations></note><note><pitch><step>A</step><octave>2</octave></pitch><duration>64</duration><voice>1</voice><type>quarter</type><notations><technical><string>6</string><fret>5</fret></technical></notations></note></measure><measure number="3"><attributes/><note><pitch><step>A</step><octave>2</octave></pitch><duration>32</duration><voice>1</voice><type>eighth</type><beam number="1">begin</beam><notations><technical><string>5</string><fret>0</fret></technical></notations></note><note><chord/><pitch><step>E</step><octave>3</octave></pitch><duration>32</duration><voice>1</voice><type>eighth</type><beam number="1">begin</beam><notations><technical><string>4</string><fret>2</fret></technical></notations></note><note><pitch><step>A</step><octave>2</octave></pitch><duration>32</duration><voice>1</voice><type>eighth</type><beam number="1">end</beam><notations><technical><string>5</string><fret>0</fret></technical></notations></note><note><chord/><pitch><step>E</step><octave>3</octave></pitch><duration>32</duration><voice>1</voice><type>eighth</type><beam number="1">end</beam><notations><technical><string>4</string><fret>2</fret></technical></notations></note><note><pitch><step>A</step><octave>2</octave></pitch><duration>32</duration><voice>1</voice><type>eighth</type><beam number="1">begin</beam><notations><technical><string>5</string><fret>0</fret></technical></notations></note><note><chord/><pitch><step>G</step><alter>-1</alter><octave>3</octave></pitch><duration>32</duration><voice>1</voice><type>eighth</type><accidental>flat</accidental><beam number="1">begin</beam><notations><technical><string>4</string><fret>4</fret></technical></notations></note><note><pitch><step>A</step><octave>2</octave></pitch><duration>32</duration><voice>1</voice><type>eighth</type><beam number="1">end</beam><notations><technical><string>5</string><fret>0</fret></technical></notations></note><note><chord/><pitch><step>G</step><alter>-1</alter><octave>3</octave></pitch><duration>32</duration><voice>1</voice><type>eighth</type><beam number="1">end</beam><notations><technical><string>4</string><fret>4</fret></technical></notations></note><note><pitch><step>A</step><octave>2</octave></pitch><duration>32</duration><voice>1</voice><type>eighth</type><beam number="1">begin</beam><notations><technical><string>5</string><fret>0</fret></technical></notations></note><note><chord/><pitch><step>E</step><octave>3</octave></pitch><duration>32</duration><voice>1</voice><type>eighth</type><beam number="1">begin</beam><notations><technical><string>4</string><fret>2</fret></technical></notations></note><note><pitch><step>A</step><octave>2</octave></pitch><duration>32</duration><voice>1</voice><type>eighth</type><beam number="1">end</beam><notations><technical><string>5</string><fret>0</fret></technical></notations></note><note><chord/><pitch><step>E</step><octave>3</octave></pitch><duration>32</duration><voice>1</voice><type>eighth</type><beam number="1">end</beam><notations><technical><string>4</string><fret>2</fret></technical></notations></note><note><pitch><step>A</step><octave>2</octave></pitch><duration>32</duration><voice>1</voice><type>eighth</type><beam number="1">begin</beam><notations><technical><string>5</string><fret>0</fret></technical></notations></note><note><chord/><pitch><step>G</step><alter>-1</alter><octave>3</octave></pitch><duration>32</duration><voice>1</voice><type>eighth</type><beam number="1">begin</beam><notations><technical><string>4</string><fret>4</fret></technical></notations></note><note><pitch><step>A</step><octave>2</octave></pitch><duration>32</duration><voice>1</voice><type>eighth</type><beam number="1">end</beam><notations><technical><string>5</string><fret>0</fret></technical></notations></note><note><chord/><pitch><step>G</step><alter>-1</alter><octave>3</octave></pitch><duration>32</duration><voice>1</voice><type>eighth</type><beam number="1">end</beam><notations><technical><string>4</string><fret>4</fret></technical></notations></note></measure><measure number="4"><attributes/><note><rest/><duration>64</duration><voice>1</voice><type>quarter</type></note><note><pitch><step>G</step><octave>3</octave></pitch><duration>32</duration><voice>1</voice><type>eighth</type><accidental>natural</accidental><beam number="1">begin</beam><notations><technical><string>4</string><fret>5</fret></technical></notations></note><note><pitch><step>A</step><octave>3</octave></pitch><duration>32</duration><voice>1</voice><type>eighth</type><beam number="1">end</beam><notations><technical><string>4</string><fret>7</fret></technical></notations></note><note><pitch><step>C</step><octave>4</octave></pitch><duration>32</duration><voice>1</voice><type>eighth</type><accidental>natural</accidental><notations><technical><string>3</string><fret>5</fret></technical></notations></note><note><chord/><pitch><step>E</step><octave>4</octave></pitch><duration>32</duration><voice>1</voice><type>eighth</type><notations><technical><string>2</string><fret>5</fret></technical></notations></note><note><rest/><duration>32</duration><voice>1</voice><type>eighth</type></note><note><pitch><step>C</step><octave>4</octave></pitch><duration>64</duration><voice>1</voice><type>quarter</type><notations><technical><string>3</string><fret>5</fret></technical></notations></note><note><chord/><pitch><step>E</step><octave>4</octave></pitch><duration>64</duration><voice>1</voice><type>quarter</type><notations><technical><string>2</string><fret>5</fret></technical></notations></note></measure><measure number="5"><attributes/><note><pitch><step>D</step><octave>3</octave></pitch><duration>32</duration><voice>1</voice><type>eighth</type><beam number="1">begin</beam><notations><technical><string>4</string><fret>0</fret></technical></notations></note><note><chord/><pitch><step>A</step><octave>3</octave></pitch><duration>32</duration><voice>1</voice><type>eighth</type><beam number="1">begin</beam><notations><technical><string>3</string><fret>2</fret></technical></notations></note><note><pitch><step>D</step><octave>3</octave></pitch><duration>32</duration><voice>1</voice><type>eighth</type><beam number="1">end</beam><notations><technical><string>4</string><fret>0</fret></technical></notations></note><note><chord/><pitch><step>A</step><octave>3</octave></pitch><duration>32</duration><voice>1</voice><type>eighth</type><beam number="1">end</beam><notations><technical><string>3</string><fret>2</fret></technical></notations></note><note><pitch><step>D</step><octave>3</octave></pitch><duration>32</duration><voice>1</voice><type>eighth</type><beam number="1">begin</beam><notations><technical><string>4</string><fret>0</fret></technical></notations></note><note><chord/><pitch><step>B</step><octave>3</octave></pitch><duration>32</duration><voice>1</voice><type>eighth</type><beam number="1">begin</beam><notations><technical><string>3</string><fret>4</fret></technical></notations></note><note><pitch><step>D</step><octave>3</octave></pitch><duration>32</duration><voice>1</voice><type>eighth</type><beam number="1">end</beam><notations><technical><string>4</string><fret>0</fret></technical></notations></note><note><chord/><pitch><step>B</step><octave>3</octave></pitch><duration>32</duration><voice>1</voice><type>eighth</type><beam number="1">end</beam><notations><technical><string>3</string><fret>4</fret></technical></notations></note><note><pitch><step>D</step><octave>3</octave></pitch><duration>32</duration><voice>1</voice><type>eighth</type><beam number="1">begin</beam><notations><technical><string>4</string><fret>0</fret></technical></notations></note><note><chord/><pitch><step>A</step><octave>3</octave></pitch><duration>32</duration><voice>1</voice><type>eighth</type><beam number="1">begin</beam><notations><technical><string>3</string><fret>2</fret></technical></notations></note><note><pitch><step>D</step><octave>3</octave></pitch><duration>32</duration><voice>1</voice><type>eighth</type><beam number="1">end</beam><notations><technical><string>4</string><fret>0</fret></technical></notations></note><note><chord/><pitch><step>A</step><octave>3</octave></pitch><duration>32</duration><voice>1</voice><type>eighth</type><beam number="1">end</beam><notations><technical><string>3</string><fret>2</fret></technical></notations></note><note><pitch><step>D</step><octave>3</octave></pitch><duration>64</duration><voice>1</voice><type>quarter</type><notations><technical><string>4</string><fret>0</fret></technical></notations></note><note><chord/><pitch><step>B</step><octave>3</octave></pitch><duration>64</duration><voice>1</voice><type>quarter</type><notations><technical><string>3</string><fret>4</fret></technical></notations></note></measure><measure number="6"><attributes/><note><pitch><step>C</step><octave>5</octave></pitch><duration>64</duration><voice>1</voice><type>quarter</type><accidental>natural</accidental><notations><technical><string>2</string><fret>13</fret></technical></notations></note><note><pitch><step>C</step><octave>5</octave></pitch><duration>64</duration><voice>1</voice><type>quarter</type><notations><technical><string>2</string><fret>13</fret></technical></notations></note><note><pitch><step>A</step><octave>4</octave></pitch><duration>32</duration><voice>1</voice><type>eighth</type><beam number="1">begin</beam><notations><technical><string>2</string><fret>10</fret></technical></notations></note><note><pitch><step>G</step><octave>4</octave></pitch><duration>32</duration><voice>1</voice><type>eighth</type><accidental>natural</accidental><beam number="1">end</beam><notations><technical><string>3</string><fret>12</fret></technical></notations></note><note><pitch><step>A</step><octave>4</octave></pitch><duration>64</duration><voice>1</voice><type>quarter</type><notations><technical><string>2</string><fret>10</fret></technical></notations></note></measure><measure number="7"><attributes/><note><pitch><step>A</step><octave>2</octave></pitch><duration>32</duration><voice>1</voice><type>eighth</type><beam number="1">begin</beam><notations><technical><string>5</string><fret>0</fret></technical></notations></note><note><chord/><pitch><step>E</step><octave>3</octave></pitch><duration>32</duration><voice>1</voice><type>eighth</type><beam number="1">begin</beam><notations><technical><string>4</string><fret>2</fret></technical></notations></note><note><pitch><step>A</step><octave>2</octave></pitch><duration>32</duration><voice>1</voice><type>eighth</type><beam number="1">end</beam><notations><technical><string>5</string><fret>0</fret></technical></notations></note><note><chord/><pitch><step>E</step><octave>3</octave></pitch><duration>32</duration><voice>1</voice><type>eighth</type><beam number="1">end</beam><notations><technical><string>4</string><fret>2</fret></technical></notations></note><note><pitch><step>A</step><octave>2</octave></pitch><duration>32</duration><voice>1</voice><type>eighth</type><beam number="1">begin</beam><notations><technical><string>5</string><fret>0</fret></technical></notations></note><note><chord/><pitch><step>G</step><alter>-1</alter><octave>3</octave></pitch><duration>32</duration><voice>1</voice><type>eighth</type><accidental>flat</accidental><beam number="1">begin</beam><notations><technical><string>4</string><fret>4</fret></technical></notations></note><note><pitch><step>A</step><octave>2</octave></pitch><duration>32</duration><voice>1</voice><type>eighth</type><beam number="1">end</beam><notations><technical><string>5</string><fret>0</fret></technical></notations></note><note><chord/><pitch><step>G</step><alter>-1</alter><octave>3</octave></pitch><duration>32</duration><voice>1</voice><type>eighth</type><beam number="1">end</beam><notations><technical><string>4</string><fret>4</fret></technical></notations></note><note><pitch><step>A</step><octave>2</octave></pitch><duration>32</duration><voice>1</voice><type>eighth</type><beam number="1">begin</beam><notations><technical><string>5</string><fret>0</fret></technical></notations></note><note><chord/><pitch><step>E</step><octave>3</octave></pitch><duration>32</duration><voice>1</voice><type>eighth</type><beam number="1">begin</beam><notations><technical><string>4</string><fret>2</fret></technical></notations></note><note><pitch><step>A</step><octave>2</octave></pitch><duration>32</duration><voice>1</voice><type>eighth</type><beam number="1">end</beam><notations><technical><string>5</string><fret>0</fret></technical></notations></note><note><chord/><pitch><step>E</step><octave>3</octave></pitch><duration>32</duration><voice>1</voice><type>eighth</type><beam number="1">end</beam><notations><technical><string>4</string><fret>2</fret></technical></notations></note><note><pitch><step>A</step><octave>2</octave></pitch><duration>64</duration><voice>1</voice><type>quarter</type><notations><technical><string>5</string><fret>0</fret></technical></notations></note><note><chord/><pitch><step>G</step><alter>-1</alter><octave>3</octave></pitch><duration>64</duration><voice>1</voice><type>quarter</type><notations><technical><string>4</string><fret>4</fret></technical></notations></note></measure><measure number="8"><attributes/><note><pitch><step>G</step><octave>4</octave></pitch><duration>64</duration><voice>1</voice><type>quarter</type><accidental>natural</accidental><notations><technical><string>2</string><fret>8</fret></technical></notations></note><note><pitch><step>G</step><octave>4</octave></pitch><duration>64</duration><voice>1</voice><type>quarter</type><notations><technical><string>2</string><fret>8</fret></technical></notations></note><note><pitch><step>E</step><octave>4</octave></pitch><duration>32</duration><voice>1</voice><type>eighth</type><beam number="1">begin</beam><notations><technical><string>2</string><fret>5</fret></technical></notations></note><note><pitch><step>D</step><octave>4</octave></pitch><duration>32</duration><voice>1</voice><type>eighth</type><beam number="1">end</beam><notations><technical><string>3</string><fret>7</fret></technical></notations></note><note><pitch><step>D</step><octave>4</octave></pitch><duration>32</duration><voice>1</voice><type>eighth</type><beam number="1">begin</beam><notations><technical><string>3</string><fret>7</fret></technical></notations></note><note><pitch><step>E</step><octave>4</octave></pitch><duration>32</duration><voice>1</voice><type>eighth</type><beam number="1">end</beam><notations><technical><string>2</string><fret>5</fret></technical></notations></note></measure><measure number="9"><attributes/><note><pitch><step>E</step><octave>2</octave></pitch><duration>32</duration><voice>1</voice><type>eighth</type><beam number="1">begin</beam><notations><technical><string>6</string><fret>0</fret></technical></notations></note><note><chord/><pitch><step>B</step><octave>2</octave></pitch><duration>32</duration><voice>1</voice><type>eighth</type><beam number="1">begin</beam><notations><technical><string>5</string><fret>2</fret></technical></notations></note><note><pitch><step>E</step><octave>2</octave></pitch><duration>32</duration><voice>1</voice><type>eighth</type><beam number="1">end</beam><notations><technical><string>6</string><fret>0</fret></technical></notations></note><note><chord/><pitch><step>B</step><octave>2</octave></pitch><duration>32</duration><voice>1</voice><type>eighth</type><beam number="1">end</beam><notations><technical><string>5</string><fret>2</fret></technical></notations></note><note><pitch><step>E</step><octave>2</octave></pitch><duration>32</duration><voice>1</voice><type>eighth</type><beam number="1">begin</beam><notations><technical><string>6</string><fret>0</fret></technical></notations></note><note><chord/><pitch><step>D</step><alter>-1</alter><octave>3</octave></pitch><duration>32</duration><voice>1</voice><type>eighth</type><accidental>flat</accidental><beam number="1">begin</beam><notations><technical><string>5</string><fret>4</fret></technical></notations></note><note><pitch><step>E</step><octave>2</octave></pitch><duration>32</duration><voice>1</voice><type>eighth</type><beam number="1">end</beam><notations><technical><string>6</string><fret>0</fret></technical></notations></note><note><chord/><pitch><step>D</step><alter>-1</alter><octave>3</octave></pitch><duration>32</duration><voice>1</voice><type>eighth</type><beam number="1">end</beam><notations><technical><string>5</string><fret>4</fret></technical></notations></note><note><pitch><step>E</step><octave>2</octave></pitch><duration>32</duration><voice>1</voice><type>eighth</type><beam number="1">begin</beam><notations><technical><string>6</string><fret>0</fret></technical></notations></note><note><chord/><pitch><step>B</step><octave>2</octave></pitch><duration>32</duration><voice>1</voice><type>eighth</type><beam number="1">begin</beam><notations><technical><string>5</string><fret>2</fret></technical></notations></note><note><pitch><step>E</step><octave>2</octave></pitch><duration>32</duration><voice>1</voice><type>eighth</type><beam number="1">end</beam><notations><technical><string>6</string><fret>0</fret></technical></notations></note><note><chord/><pitch><step>B</step><octave>2</octave></pitch><duration>32</duration><voice>1</voice><type>eighth</type><beam number="1">end</beam><notations><technical><string>5</string><fret>2</fret></technical></notations></note><note><pitch><step>E</step><octave>2</octave></pitch><duration>64</duration><voice>1</voice><type>quarter</type><notations><technical><string>6</string><fret>0</fret></technical></notations></note><note><chord/><pitch><step>D</step><alter>-1</alter><octave>3</octave></pitch><duration>64</duration><voice>1</voice><type>quarter</type><notations><technical><string>5</string><fret>4</fret></technical></notations></note></measure><measure number="10"><attributes/><note><pitch><step>E</step><octave>4</octave></pitch><duration>32</duration><voice>1</voice><type>eighth</type><beam number="1">begin</beam><notations><technical><string>4</string><fret>14</fret></technical></notations></note><note><pitch><step>D</step><octave>4</octave></pitch><duration>32</duration><voice>1</voice><type>eighth</type><beam number="1">end</beam><notations><technical><string>4</string><fret>12</fret></technical></notations></note><note><pitch><step>B</step><octave>3</octave></pitch><duration>32</duration><voice>1</voice><type>eighth</type><beam number="1">begin</beam><notations><technical><string>5</string><fret>14</fret></technical></notations></note><note><pitch><step>B</step><alter>-1</alter><octave>3</octave></pitch><duration>32</duration><voice>1</voice><type>eighth</type><accidental>flat</accidental><beam number="1">end</beam><notations><technical><string>5</string><fret>13</fret></technical></notations></note><note><pitch><step>A</step><octave>3</octave></pitch><duration>32</duration><voice>1</voice><type>eighth</type><beam number="1">begin</beam><notations><technical><string>5</string><fret>12</fret></technical></notations></note><note><pitch><step>G</step><octave>3</octave></pitch><duration>32</duration><voice>1</voice><type>eighth</type><accidental>natural</accidental><beam number="1">end</beam><notations><technical><string>6</string><fret>15</fret></technical></notations></note><note><pitch><step>E</step><octave>3</octave></pitch><duration>64</duration><voice>1</voice><type>quarter</type><notations><technical><string>6</string><fret>12</fret></technical></notations></note></measure><measure number="11"><attributes/><note><pitch><step>A</step><octave>2</octave></pitch><duration>32</duration><voice>1</voice><type>eighth</type><beam number="1">begin</beam><notations><technical><string>5</string><fret>0</fret></technical></notations></note><note><chord/><pitch><step>E</step><octave>3</octave></pitch><duration>32</duration><voice>1</voice><type>eighth</type><beam number="1">begin</beam><notations><technical><string>4</string><fret>2</fret></technical></notations></note><note><pitch><step>A</step><octave>2</octave></pitch><duration>32</duration><voice>1</voice><type>eighth</type><beam number="1">end</beam><notations><technical><string>5</string><fret>0</fret></technical></notations></note><note><chord/><pitch><step>E</step><octave>3</octave></pitch><duration>32</duration><voice>1</voice><type>eighth</type><beam number="1">end</beam><notations><technical><string>4</string><fret>2</fret></technical></notations></note><note><pitch><step>A</step><octave>2</octave></pitch><duration>32</duration><voice>1</voice><type>eighth</type><beam number="1">begin</beam><notations><technical><string>5</string><fret>0</fret></technical></notations></note><note><chord/><pitch><step>G</step><alter>-1</alter><octave>3</octave></pitch><duration>32</duration><voice>1</voice><type>eighth</type><accidental>flat</accidental><beam number="1">begin</beam><notations><technical><string>4</string><fret>4</fret></technical></notations></note><note><pitch><step>A</step><octave>2</octave></pitch><duration>32</duration><voice>1</voice><type>eighth</type><beam number="1">end</beam><notations><technical><string>5</string><fret>0</fret></technical></notations></note><note><chord/><pitch><step>G</step><alter>-1</alter><octave>3</octave></pitch><duration>32</duration><voice>1</voice><type>eighth</type><beam number="1">end</beam><notations><technical><string>4</string><fret>4</fret></technical></notations></note><note><pitch><step>A</step><octave>2</octave></pitch><duration>32</duration><voice>1</voice><type>eighth</type><beam number="1">begin</beam><notations><technical><string>5</string><fret>0</fret></technical></notations></note><note><chord/><pitch><step>E</step><octave>3</octave></pitch><duration>32</duration><voice>1</voice><type>eighth</type><beam number="1">begin</beam><notations><technical><string>4</string><fret>2</fret></technical></notations></note><note><pitch><step>A</step><octave>2</octave></pitch><duration>32</duration><voice>1</voice><type>eighth</type><beam number="1">end</beam><notations><technical><string>5</string><fret>0</fret></technical></notations></note><note><chord/><pitch><step>E</step><octave>3</octave></pitch><duration>32</duration><voice>1</voice><type>eighth</type><beam number="1">end</beam><notations><technical><string>4</string><fret>2</fret></technical></notations></note><note><pitch><step>A</step><octave>2</octave></pitch><duration>64</duration><voice>1</voice><type>quarter</type><notations><technical><string>5</string><fret>0</fret></technical></notations></note><note><chord/><pitch><step>G</step><alter>-1</alter><octave>3</octave></pitch><duration>64</duration><voice>1</voice><type>quarter</type><notations><technical><string>4</string><fret>4</fret></technical></notations></note></measure><measure number="12"><attributes/><note><pitch><step>G</step><octave>4</octave></pitch><duration>32</duration><voice>1</voice><type>eighth</type><accidental>natural</accidental><beam number="1">begin</beam><notations><technical><string>3</string><fret>12</fret></technical></notations></note><note><pitch><step>A</step><octave>4</octave></pitch><duration>32</duration><voice>1</voice><type>eighth</type><beam number="1">end</beam><notations><technical><string>2</string><fret>10</fret></technical></notations></note><note><chord/><pitch><step>D</step><octave>5</octave></pitch><duration>32</duration><voice>1</voice><type>eighth</type><beam number="1">end</beam><notations><technical><string>1</string><fret>10</fret></technical></notations></note><note><pitch><step>A</step><octave>4</octave></pitch><duration>32</duration><voice>1</voice><type>eighth</type><beam number="1">begin</beam><notations><technical><string>2</string><fret>10</fret></technical></notations></note><note><chord/><pitch><step>D</step><octave>5</octave></pitch><duration>32</duration><voice>1</voice><type>eighth</type><beam number="1">begin</beam><notations><technical><string>1</string><fret>10</fret></technical></notations></note><note><pitch><step>A</step><octave>4</octave></pitch><duration>32</duration><voice>1</voice><type>eighth</type><beam number="1">end</beam><notations><technical><string>2</string><fret>10</fret></technical></notations></note><note><chord/><pitch><step>D</step><octave>5</octave></pitch><duration>32</duration><voice>1</voice><type>eighth</type><beam number="1">end</beam><notations><technical><string>1</string><fret>10</fret></technical></notations></note><note><pitch><step>A</step><octave>4</octave></pitch><duration>128</duration><voice>1</voice><type>half</type><notations><technical><string>2</string><fret>10</fret></technical></notations></note><note><chord/><pitch><step>D</step><octave>5</octave></pitch><duration>128</duration><voice>1</voice><type>half</type><notations><technical><string>1</string><fret>10</fret></technical></notations></note></measure><measure number="13"><attributes/><note><pitch><step>A</step><octave>2</octave></pitch><duration>64</duration><voice>1</voice><type>quarter</type><notations><technical><string>5</string><fret>0</fret></technical></notations></note><note><pitch><step>G</step><octave>2</octave></pitch><duration>64</duration><voice>1</voice><type>quarter</type><accidental>natural</accidental><notations><technical><string>6</string><fret>3</fret></technical></notations></note><note><pitch><step>G</step><alter>-1</alter><octave>2</octave></pitch><duration>64</duration><voice>1</voice><type>quarter</type><accidental>flat</accidental><notations><technical><string>6</string><fret>2</fret></technical></notations></note><note><pitch><step>F</step><octave>2</octave></pitch><duration>64</duration><voice>1</voice><type>quarter</type><accidental>natural</accidental><notations><technical><string>6</string><fret>1</fret></technical></notations></note></measure><measure number="14"><attributes/><note><pitch><step>E</step><octave>2</octave></pitch><duration>96</duration><voice>1</voice><type>quarter</type><dot/><notations><technical><string>6</string><fret>0</fret></technical></notations></note><note><pitch><step>E</step><octave>2</octave></pitch><duration>32</duration><tie type="start"/><voice>1</voice><type>eighth</type><notations><technical><string>6</string><fret>0</fret></technical><tied type="start"/></notations></note><note><chord/><pitch><step>B</step><octave>2</octave></pitch><duration>32</duration><tie type="start"/><voice>1</voice><type>eighth</type><notations><technical><string>5</string><fret>2</fret></technical><tied type="start"/></notations></note><note><chord/><pitch><step>D</step><octave>3</octave></pitch><duration>32</duration><tie type="start"/><voice>1</voice><type>eighth</type><notations><technical><string>4</string><fret>0</fret></technical><tied type="start"/></notations></note><note><chord/><pitch><step>A</step><alter>-1</alter><octave>3</octave></pitch><duration>32</duration><tie type="start"/><voice>1</voice><type>eighth</type><accidental>flat</accidental><notations><technical><string>3</string><fret>1</fret></technical><tied type="start"/></notations></note><note><chord/><pitch><step>B</step><octave>3</octave></pitch><duration>32</duration><tie type="start"/><voice>1</voice><type>eighth</type><notations><technical><string>2</string><fret>0</fret></technical><tied type="start"/></notations></note><note><chord/><pitch><step>E</step><octave>4</octave></pitch><duration>32</duration><tie type="start"/><voice>1</voice><type>eighth</type><notations><technical><string>1</string><fret>0</fret></technical><tied type="start"/></notations></note><note><pitch><step>E</step><octave>2</octave></pitch><duration>128</duration><tie type="stop"/><voice>1</voice><type>half</type><notations><technical><string>6</string><fret>0</fret></technical><tied type="stop"/></notations></note><note><chord/><pitch><step>B</step><octave>2</octave></pitch><duration>128</duration><tie type="stop"/><voice>1</voice><type>half</type><notations><technical><string>5</string><fret>2</fret></technical><tied type="stop"/></notations></note><note><chord/><pitch><step>D</step><octave>3</octave></pitch><duration>128</duration><tie type="stop"/><voice>1</voice><type>half</type><notations><technical><string>4</string><fret>0</fret></technical><tied type="stop"/></notations></note><note><chord/><pitch><step>A</step><alter>-1</alter><octave>3</octave></pitch><duration>128</duration><tie type="stop"/><voice>1</voice><type>half</type><notations><technical><string>3</string><fret>1</fret></technical><tied type="stop"/></notations></note><note><chord/><pitch><step>B</step><octave>3</octave></pitch><duration>128</duration><tie type="stop"/><voice>1</voice><type>half</type><notations><technical><string>2</string><fret>0</fret></technical><tied type="stop"/></notations></note><note><chord/><pitch><step>E</step><octave>4</octave></pitch><duration>128</duration><tie type="stop"/><voice>1</voice><type>half</type><notations><technical><string>1</string><fret>0</fret></technical><tied type="stop"/></notations></note><barline location="right"><bar-style>light-heavy</bar-style></barline></measure></part></score-partwise>
